<mxfile host="app.diagrams.net" modified="2022-02-09T00:44:43.433Z" agent="5.0 (Macintosh; Intel Mac OS X 10_15_7) AppleWebKit/605.1.15 (KHTML, like Gecko) Version/15.0 Safari/605.1.15" etag="pRQ5Uhud0K8DxmaKvPvT" version="16.5.3" type="github">
  <diagram id="8rXd7ZJD6_ufsGLInEJ6" name="Page-1">
    <mxGraphModel dx="1146" dy="819" grid="1" gridSize="10" guides="1" tooltips="1" connect="1" arrows="1" fold="1" page="1" pageScale="1" pageWidth="827" pageHeight="1169" math="0" shadow="0">
      <root>
        <mxCell id="0" />
        <mxCell id="1" parent="0" />
        <mxCell id="eLDzcsy6LV6fI5223EEZ-4" value="" style="edgeStyle=orthogonalEdgeStyle;rounded=0;orthogonalLoop=1;jettySize=auto;html=1;" parent="1" source="eLDzcsy6LV6fI5223EEZ-1" target="eLDzcsy6LV6fI5223EEZ-3" edge="1">
          <mxGeometry relative="1" as="geometry" />
        </mxCell>
        <mxCell id="eLDzcsy6LV6fI5223EEZ-1" value="computeTax(incomeList, parentList, childList)" style="ellipse;whiteSpace=wrap;html=1;" parent="1" vertex="1">
          <mxGeometry x="600" y="40" width="160" height="80" as="geometry" />
        </mxCell>
        <mxCell id="eLDzcsy6LV6fI5223EEZ-8" value="" style="edgeStyle=orthogonalEdgeStyle;rounded=0;orthogonalLoop=1;jettySize=auto;html=1;" parent="1" source="eLDzcsy6LV6fI5223EEZ-3" target="eLDzcsy6LV6fI5223EEZ-7" edge="1">
          <mxGeometry relative="1" as="geometry" />
        </mxCell>
        <mxCell id="eLDzcsy6LV6fI5223EEZ-3" value="taxAmount = 0.0&lt;br&gt;incomeAmount = 0.0&lt;br&gt;i=0" style="whiteSpace=wrap;html=1;" parent="1" vertex="1">
          <mxGeometry x="620" y="210" width="120" height="60" as="geometry" />
        </mxCell>
        <mxCell id="eLDzcsy6LV6fI5223EEZ-9" style="edgeStyle=orthogonalEdgeStyle;rounded=0;orthogonalLoop=1;jettySize=auto;html=1;exitX=0.5;exitY=1;exitDx=0;exitDy=0;" parent="1" source="eLDzcsy6LV6fI5223EEZ-7" target="eLDzcsy6LV6fI5223EEZ-10" edge="1">
          <mxGeometry relative="1" as="geometry">
            <mxPoint x="680" y="520" as="targetPoint" />
          </mxGeometry>
        </mxCell>
        <mxCell id="eLDzcsy6LV6fI5223EEZ-12" value="True" style="edgeLabel;html=1;align=center;verticalAlign=middle;resizable=0;points=[];" parent="eLDzcsy6LV6fI5223EEZ-9" vertex="1" connectable="0">
          <mxGeometry x="-0.1667" y="1" relative="1" as="geometry">
            <mxPoint as="offset" />
          </mxGeometry>
        </mxCell>
        <mxCell id="eLDzcsy6LV6fI5223EEZ-17" value="" style="edgeStyle=orthogonalEdgeStyle;rounded=0;orthogonalLoop=1;jettySize=auto;html=1;" parent="1" source="eLDzcsy6LV6fI5223EEZ-7" target="eLDzcsy6LV6fI5223EEZ-16" edge="1">
          <mxGeometry relative="1" as="geometry" />
        </mxCell>
        <mxCell id="eLDzcsy6LV6fI5223EEZ-18" value="False" style="edgeLabel;html=1;align=center;verticalAlign=middle;resizable=0;points=[];" parent="eLDzcsy6LV6fI5223EEZ-17" vertex="1" connectable="0">
          <mxGeometry x="0.0286" relative="1" as="geometry">
            <mxPoint as="offset" />
          </mxGeometry>
        </mxCell>
        <mxCell id="eLDzcsy6LV6fI5223EEZ-7" value="i &amp;lt; incomeList.length" style="rhombus;whiteSpace=wrap;html=1;" parent="1" vertex="1">
          <mxGeometry x="615" y="340" width="130" height="130" as="geometry" />
        </mxCell>
        <mxCell id="eLDzcsy6LV6fI5223EEZ-11" style="edgeStyle=orthogonalEdgeStyle;rounded=0;orthogonalLoop=1;jettySize=auto;html=1;exitX=1;exitY=0.5;exitDx=0;exitDy=0;entryX=1;entryY=0.5;entryDx=0;entryDy=0;" parent="1" source="eLDzcsy6LV6fI5223EEZ-10" target="eLDzcsy6LV6fI5223EEZ-7" edge="1">
          <mxGeometry relative="1" as="geometry">
            <Array as="points">
              <mxPoint x="765" y="560" />
              <mxPoint x="765" y="405" />
            </Array>
          </mxGeometry>
        </mxCell>
        <mxCell id="eLDzcsy6LV6fI5223EEZ-13" value="i = i +1" style="edgeLabel;html=1;align=center;verticalAlign=middle;resizable=0;points=[];" parent="eLDzcsy6LV6fI5223EEZ-11" vertex="1" connectable="0">
          <mxGeometry x="0.0341" y="1" relative="1" as="geometry">
            <mxPoint as="offset" />
          </mxGeometry>
        </mxCell>
        <mxCell id="eLDzcsy6LV6fI5223EEZ-10" value="incomeAmount = incomeAmount + incomeList[i]" style="shape=parallelogram;perimeter=parallelogramPerimeter;whiteSpace=wrap;html=1;fixedSize=1;" parent="1" vertex="1">
          <mxGeometry x="615" y="530" width="130" height="60" as="geometry" />
        </mxCell>
        <mxCell id="eLDzcsy6LV6fI5223EEZ-21" value="" style="edgeStyle=orthogonalEdgeStyle;rounded=0;orthogonalLoop=1;jettySize=auto;html=1;" parent="1" source="eLDzcsy6LV6fI5223EEZ-16" target="eLDzcsy6LV6fI5223EEZ-20" edge="1">
          <mxGeometry relative="1" as="geometry" />
        </mxCell>
        <mxCell id="eLDzcsy6LV6fI5223EEZ-22" value="True" style="edgeLabel;html=1;align=center;verticalAlign=middle;resizable=0;points=[];" parent="eLDzcsy6LV6fI5223EEZ-21" vertex="1" connectable="0">
          <mxGeometry x="-0.1111" relative="1" as="geometry">
            <mxPoint as="offset" />
          </mxGeometry>
        </mxCell>
        <mxCell id="eLDzcsy6LV6fI5223EEZ-28" style="edgeStyle=orthogonalEdgeStyle;rounded=0;orthogonalLoop=1;jettySize=auto;html=1;entryX=0.5;entryY=0;entryDx=0;entryDy=0;" parent="1" source="eLDzcsy6LV6fI5223EEZ-16" target="eLDzcsy6LV6fI5223EEZ-26" edge="1">
          <mxGeometry relative="1" as="geometry" />
        </mxCell>
        <mxCell id="eLDzcsy6LV6fI5223EEZ-29" value="False" style="edgeLabel;html=1;align=center;verticalAlign=middle;resizable=0;points=[];" parent="eLDzcsy6LV6fI5223EEZ-28" vertex="1" connectable="0">
          <mxGeometry x="0.2" relative="1" as="geometry">
            <mxPoint as="offset" />
          </mxGeometry>
        </mxCell>
        <mxCell id="eLDzcsy6LV6fI5223EEZ-16" value="if (incomeAmount) &amp;lt;= 40000" style="rhombus;whiteSpace=wrap;html=1;" parent="1" vertex="1">
          <mxGeometry x="370" y="342.5" width="140" height="125" as="geometry" />
        </mxCell>
        <mxCell id="eLDzcsy6LV6fI5223EEZ-20" value="taxAmount = incomeAmount * 0.02" style="whiteSpace=wrap;html=1;" parent="1" vertex="1">
          <mxGeometry x="120" y="375" width="120" height="60" as="geometry" />
        </mxCell>
        <mxCell id="eLDzcsy6LV6fI5223EEZ-34" value="" style="edgeStyle=orthogonalEdgeStyle;rounded=0;orthogonalLoop=1;jettySize=auto;html=1;" parent="1" source="eLDzcsy6LV6fI5223EEZ-26" target="eLDzcsy6LV6fI5223EEZ-33" edge="1">
          <mxGeometry relative="1" as="geometry" />
        </mxCell>
        <mxCell id="eLDzcsy6LV6fI5223EEZ-37" value="False" style="edgeLabel;html=1;align=center;verticalAlign=middle;resizable=0;points=[];" parent="eLDzcsy6LV6fI5223EEZ-34" vertex="1" connectable="0">
          <mxGeometry x="-0.2" y="-1" relative="1" as="geometry">
            <mxPoint as="offset" />
          </mxGeometry>
        </mxCell>
        <mxCell id="eLDzcsy6LV6fI5223EEZ-40" value="" style="edgeStyle=orthogonalEdgeStyle;rounded=0;orthogonalLoop=1;jettySize=auto;html=1;" parent="1" source="eLDzcsy6LV6fI5223EEZ-26" target="eLDzcsy6LV6fI5223EEZ-39" edge="1">
          <mxGeometry relative="1" as="geometry" />
        </mxCell>
        <mxCell id="K2frcegeoW0lDcCDsj6_-1" value="True" style="edgeLabel;html=1;align=center;verticalAlign=middle;resizable=0;points=[];" parent="eLDzcsy6LV6fI5223EEZ-40" vertex="1" connectable="0">
          <mxGeometry x="-0.0364" relative="1" as="geometry">
            <mxPoint as="offset" />
          </mxGeometry>
        </mxCell>
        <mxCell id="eLDzcsy6LV6fI5223EEZ-26" value="if(incomeAmount &amp;gt; 40000 &amp;amp;&amp;amp; incomeAmount &amp;lt;= 80000)" style="rhombus;whiteSpace=wrap;html=1;" parent="1" vertex="1">
          <mxGeometry x="350" y="520" width="180" height="180" as="geometry" />
        </mxCell>
        <mxCell id="eLDzcsy6LV6fI5223EEZ-36" value="" style="edgeStyle=orthogonalEdgeStyle;rounded=0;orthogonalLoop=1;jettySize=auto;html=1;" parent="1" source="eLDzcsy6LV6fI5223EEZ-33" target="eLDzcsy6LV6fI5223EEZ-35" edge="1">
          <mxGeometry relative="1" as="geometry" />
        </mxCell>
        <mxCell id="eLDzcsy6LV6fI5223EEZ-38" value="False" style="edgeLabel;html=1;align=center;verticalAlign=middle;resizable=0;points=[];" parent="eLDzcsy6LV6fI5223EEZ-36" vertex="1" connectable="0">
          <mxGeometry x="-0.1" y="-2" relative="1" as="geometry">
            <mxPoint as="offset" />
          </mxGeometry>
        </mxCell>
        <mxCell id="eLDzcsy6LV6fI5223EEZ-42" value="" style="edgeStyle=orthogonalEdgeStyle;rounded=0;orthogonalLoop=1;jettySize=auto;html=1;" parent="1" source="eLDzcsy6LV6fI5223EEZ-33" target="eLDzcsy6LV6fI5223EEZ-41" edge="1">
          <mxGeometry relative="1" as="geometry" />
        </mxCell>
        <mxCell id="K2frcegeoW0lDcCDsj6_-2" value="True" style="edgeLabel;html=1;align=center;verticalAlign=middle;resizable=0;points=[];" parent="eLDzcsy6LV6fI5223EEZ-42" vertex="1" connectable="0">
          <mxGeometry x="-0.0182" relative="1" as="geometry">
            <mxPoint as="offset" />
          </mxGeometry>
        </mxCell>
        <mxCell id="eLDzcsy6LV6fI5223EEZ-33" value="if(incomeAmount &amp;gt; 80000 &amp;amp;&amp;amp; incomeAmount &amp;lt;= 120000)" style="rhombus;whiteSpace=wrap;html=1;" parent="1" vertex="1">
          <mxGeometry x="350" y="780" width="180" height="180" as="geometry" />
        </mxCell>
        <mxCell id="eLDzcsy6LV6fI5223EEZ-44" value="" style="edgeStyle=orthogonalEdgeStyle;rounded=0;orthogonalLoop=1;jettySize=auto;html=1;" parent="1" source="eLDzcsy6LV6fI5223EEZ-35" target="eLDzcsy6LV6fI5223EEZ-43" edge="1">
          <mxGeometry relative="1" as="geometry" />
        </mxCell>
        <mxCell id="K2frcegeoW0lDcCDsj6_-3" value="True" style="edgeLabel;html=1;align=center;verticalAlign=middle;resizable=0;points=[];" parent="eLDzcsy6LV6fI5223EEZ-44" vertex="1" connectable="0">
          <mxGeometry x="-0.1091" y="2" relative="1" as="geometry">
            <mxPoint as="offset" />
          </mxGeometry>
        </mxCell>
        <mxCell id="eLDzcsy6LV6fI5223EEZ-51" value="False" style="edgeStyle=orthogonalEdgeStyle;rounded=0;orthogonalLoop=1;jettySize=auto;html=1;entryX=0.5;entryY=0;entryDx=0;entryDy=0;" parent="1" source="eLDzcsy6LV6fI5223EEZ-35" target="eLDzcsy6LV6fI5223EEZ-46" edge="1">
          <mxGeometry relative="1" as="geometry" />
        </mxCell>
        <mxCell id="eLDzcsy6LV6fI5223EEZ-35" value="if(incomeAmount &amp;gt; 120000)" style="rhombus;whiteSpace=wrap;html=1;" parent="1" vertex="1">
          <mxGeometry x="350" y="1040" width="180" height="180" as="geometry" />
        </mxCell>
        <mxCell id="eLDzcsy6LV6fI5223EEZ-47" value="" style="edgeStyle=orthogonalEdgeStyle;rounded=0;orthogonalLoop=1;jettySize=auto;html=1;exitX=0;exitY=0.5;exitDx=0;exitDy=0;" parent="1" source="eLDzcsy6LV6fI5223EEZ-20" target="eLDzcsy6LV6fI5223EEZ-46" edge="1">
          <mxGeometry relative="1" as="geometry">
            <Array as="points">
              <mxPoint x="50" y="405" />
              <mxPoint x="50" y="1330" />
            </Array>
          </mxGeometry>
        </mxCell>
        <mxCell id="eLDzcsy6LV6fI5223EEZ-48" style="edgeStyle=orthogonalEdgeStyle;rounded=0;orthogonalLoop=1;jettySize=auto;html=1;entryX=0;entryY=0.5;entryDx=0;entryDy=0;" parent="1" source="eLDzcsy6LV6fI5223EEZ-39" target="eLDzcsy6LV6fI5223EEZ-46" edge="1">
          <mxGeometry relative="1" as="geometry">
            <mxPoint x="50" y="610" as="targetPoint" />
            <Array as="points">
              <mxPoint x="50" y="610" />
              <mxPoint x="50" y="1330" />
            </Array>
          </mxGeometry>
        </mxCell>
        <mxCell id="eLDzcsy6LV6fI5223EEZ-39" value="taxAmount = 800 + incomeAmount * 0.07" style="whiteSpace=wrap;html=1;" parent="1" vertex="1">
          <mxGeometry x="120" y="580" width="120" height="60" as="geometry" />
        </mxCell>
        <mxCell id="eLDzcsy6LV6fI5223EEZ-49" style="edgeStyle=orthogonalEdgeStyle;rounded=0;orthogonalLoop=1;jettySize=auto;html=1;entryX=0;entryY=0.5;entryDx=0;entryDy=0;" parent="1" source="eLDzcsy6LV6fI5223EEZ-41" target="eLDzcsy6LV6fI5223EEZ-46" edge="1">
          <mxGeometry relative="1" as="geometry">
            <mxPoint x="50" y="870" as="targetPoint" />
            <Array as="points">
              <mxPoint x="50" y="870" />
              <mxPoint x="50" y="1330" />
            </Array>
          </mxGeometry>
        </mxCell>
        <mxCell id="eLDzcsy6LV6fI5223EEZ-41" value="&lt;span&gt;taxAmount = 800 + 2800 + incomeAmount * 0.12&lt;/span&gt;" style="whiteSpace=wrap;html=1;" parent="1" vertex="1">
          <mxGeometry x="120" y="840" width="120" height="60" as="geometry" />
        </mxCell>
        <mxCell id="eLDzcsy6LV6fI5223EEZ-50" style="edgeStyle=orthogonalEdgeStyle;rounded=0;orthogonalLoop=1;jettySize=auto;html=1;entryX=0;entryY=0.5;entryDx=0;entryDy=0;" parent="1" source="eLDzcsy6LV6fI5223EEZ-43" target="eLDzcsy6LV6fI5223EEZ-46" edge="1">
          <mxGeometry relative="1" as="geometry">
            <Array as="points">
              <mxPoint x="50" y="1130" />
              <mxPoint x="50" y="1330" />
            </Array>
          </mxGeometry>
        </mxCell>
        <mxCell id="eLDzcsy6LV6fI5223EEZ-43" value="&lt;span&gt;taxAmount = 800 + 2800 + 4800 + &amp;nbsp;incomeAmount * 0.17&lt;/span&gt;" style="whiteSpace=wrap;html=1;" parent="1" vertex="1">
          <mxGeometry x="120" y="1100" width="120" height="60" as="geometry" />
        </mxCell>
        <mxCell id="eLDzcsy6LV6fI5223EEZ-53" value="" style="edgeStyle=orthogonalEdgeStyle;rounded=0;orthogonalLoop=1;jettySize=auto;html=1;" parent="1" source="eLDzcsy6LV6fI5223EEZ-46" target="eLDzcsy6LV6fI5223EEZ-52" edge="1">
          <mxGeometry relative="1" as="geometry" />
        </mxCell>
        <mxCell id="eLDzcsy6LV6fI5223EEZ-46" value="int taxExemption = 0&lt;br&gt;int numOfChild = childList.length" style="whiteSpace=wrap;html=1;" parent="1" vertex="1">
          <mxGeometry x="380" y="1300" width="120" height="60" as="geometry" />
        </mxCell>
        <mxCell id="eLDzcsy6LV6fI5223EEZ-55" value="" style="edgeStyle=orthogonalEdgeStyle;rounded=0;orthogonalLoop=1;jettySize=auto;html=1;" parent="1" source="eLDzcsy6LV6fI5223EEZ-52" target="eLDzcsy6LV6fI5223EEZ-54" edge="1">
          <mxGeometry relative="1" as="geometry" />
        </mxCell>
        <mxCell id="eLDzcsy6LV6fI5223EEZ-65" value="True" style="edgeLabel;html=1;align=center;verticalAlign=middle;resizable=0;points=[];" parent="eLDzcsy6LV6fI5223EEZ-55" vertex="1" connectable="0">
          <mxGeometry x="-0.125" y="-1" relative="1" as="geometry">
            <mxPoint as="offset" />
          </mxGeometry>
        </mxCell>
        <mxCell id="eLDzcsy6LV6fI5223EEZ-69" value="" style="edgeStyle=orthogonalEdgeStyle;rounded=0;orthogonalLoop=1;jettySize=auto;html=1;" parent="1" source="eLDzcsy6LV6fI5223EEZ-52" target="eLDzcsy6LV6fI5223EEZ-68" edge="1">
          <mxGeometry relative="1" as="geometry" />
        </mxCell>
        <mxCell id="K2frcegeoW0lDcCDsj6_-4" value="False" style="edgeLabel;html=1;align=center;verticalAlign=middle;resizable=0;points=[];" parent="eLDzcsy6LV6fI5223EEZ-69" vertex="1" connectable="0">
          <mxGeometry x="-0.2" y="2" relative="1" as="geometry">
            <mxPoint as="offset" />
          </mxGeometry>
        </mxCell>
        <mxCell id="eLDzcsy6LV6fI5223EEZ-52" value="numOfChild &amp;gt; 0" style="rhombus;whiteSpace=wrap;html=1;" parent="1" vertex="1">
          <mxGeometry x="385" y="1430" width="110" height="110" as="geometry" />
        </mxCell>
        <mxCell id="eLDzcsy6LV6fI5223EEZ-57" value="" style="edgeStyle=orthogonalEdgeStyle;rounded=0;orthogonalLoop=1;jettySize=auto;html=1;" parent="1" source="eLDzcsy6LV6fI5223EEZ-54" target="eLDzcsy6LV6fI5223EEZ-56" edge="1">
          <mxGeometry relative="1" as="geometry" />
        </mxCell>
        <mxCell id="eLDzcsy6LV6fI5223EEZ-64" value="True" style="edgeLabel;html=1;align=center;verticalAlign=middle;resizable=0;points=[];" parent="eLDzcsy6LV6fI5223EEZ-57" vertex="1" connectable="0">
          <mxGeometry x="-0.08" y="-1" relative="1" as="geometry">
            <mxPoint as="offset" />
          </mxGeometry>
        </mxCell>
        <mxCell id="eLDzcsy6LV6fI5223EEZ-62" style="edgeStyle=orthogonalEdgeStyle;rounded=0;orthogonalLoop=1;jettySize=auto;html=1;" parent="1" source="eLDzcsy6LV6fI5223EEZ-54" target="eLDzcsy6LV6fI5223EEZ-59" edge="1">
          <mxGeometry relative="1" as="geometry" />
        </mxCell>
        <mxCell id="eLDzcsy6LV6fI5223EEZ-63" value="False" style="edgeLabel;html=1;align=center;verticalAlign=middle;resizable=0;points=[];" parent="eLDzcsy6LV6fI5223EEZ-62" vertex="1" connectable="0">
          <mxGeometry x="-0.2414" y="-1" relative="1" as="geometry">
            <mxPoint x="1" as="offset" />
          </mxGeometry>
        </mxCell>
        <mxCell id="eLDzcsy6LV6fI5223EEZ-54" value="childList [numOfChild -1] &amp;lt; 18" style="rhombus;whiteSpace=wrap;html=1;" parent="1" vertex="1">
          <mxGeometry x="352.5" y="1620" width="175" height="180" as="geometry" />
        </mxCell>
        <mxCell id="eLDzcsy6LV6fI5223EEZ-60" value="" style="edgeStyle=orthogonalEdgeStyle;rounded=0;orthogonalLoop=1;jettySize=auto;html=1;" parent="1" source="eLDzcsy6LV6fI5223EEZ-56" target="eLDzcsy6LV6fI5223EEZ-59" edge="1">
          <mxGeometry relative="1" as="geometry" />
        </mxCell>
        <mxCell id="eLDzcsy6LV6fI5223EEZ-56" value="taxAmount = taxAmount - 4000&lt;br&gt;taxExemption = taxExemption + 4000" style="whiteSpace=wrap;html=1;" parent="1" vertex="1">
          <mxGeometry x="380" y="1900" width="120" height="60" as="geometry" />
        </mxCell>
        <mxCell id="eLDzcsy6LV6fI5223EEZ-61" style="edgeStyle=orthogonalEdgeStyle;rounded=0;orthogonalLoop=1;jettySize=auto;html=1;" parent="1" source="eLDzcsy6LV6fI5223EEZ-59" edge="1">
          <mxGeometry relative="1" as="geometry">
            <mxPoint x="390" y="1485" as="targetPoint" />
            <Array as="points">
              <mxPoint x="190" y="1485" />
            </Array>
          </mxGeometry>
        </mxCell>
        <mxCell id="eLDzcsy6LV6fI5223EEZ-59" value="numOfChild--" style="whiteSpace=wrap;html=1;" parent="1" vertex="1">
          <mxGeometry x="130" y="1680" width="120" height="60" as="geometry" />
        </mxCell>
        <mxCell id="eLDzcsy6LV6fI5223EEZ-71" value="" style="edgeStyle=orthogonalEdgeStyle;rounded=0;orthogonalLoop=1;jettySize=auto;html=1;" parent="1" source="eLDzcsy6LV6fI5223EEZ-68" target="eLDzcsy6LV6fI5223EEZ-70" edge="1">
          <mxGeometry relative="1" as="geometry" />
        </mxCell>
        <mxCell id="eLDzcsy6LV6fI5223EEZ-68" value="j = 0" style="whiteSpace=wrap;html=1;" parent="1" vertex="1">
          <mxGeometry x="600" y="1455" width="120" height="60" as="geometry" />
        </mxCell>
        <mxCell id="eLDzcsy6LV6fI5223EEZ-73" value="" style="edgeStyle=orthogonalEdgeStyle;rounded=0;orthogonalLoop=1;jettySize=auto;html=1;" parent="1" source="eLDzcsy6LV6fI5223EEZ-70" target="eLDzcsy6LV6fI5223EEZ-72" edge="1">
          <mxGeometry relative="1" as="geometry" />
        </mxCell>
        <mxCell id="eLDzcsy6LV6fI5223EEZ-79" value="False" style="edgeLabel;html=1;align=center;verticalAlign=middle;resizable=0;points=[];" parent="eLDzcsy6LV6fI5223EEZ-73" vertex="1" connectable="0">
          <mxGeometry x="-0.0459" y="2" relative="1" as="geometry">
            <mxPoint as="offset" />
          </mxGeometry>
        </mxCell>
        <mxCell id="eLDzcsy6LV6fI5223EEZ-75" value="" style="edgeStyle=orthogonalEdgeStyle;rounded=0;orthogonalLoop=1;jettySize=auto;html=1;" parent="1" source="eLDzcsy6LV6fI5223EEZ-70" target="eLDzcsy6LV6fI5223EEZ-74" edge="1">
          <mxGeometry relative="1" as="geometry" />
        </mxCell>
        <mxCell id="eLDzcsy6LV6fI5223EEZ-78" value="True" style="edgeLabel;html=1;align=center;verticalAlign=middle;resizable=0;points=[];" parent="eLDzcsy6LV6fI5223EEZ-75" vertex="1" connectable="0">
          <mxGeometry x="0.0344" y="-1" relative="1" as="geometry">
            <mxPoint as="offset" />
          </mxGeometry>
        </mxCell>
        <mxCell id="eLDzcsy6LV6fI5223EEZ-70" value="j &amp;lt; parentList.length" style="rhombus;whiteSpace=wrap;html=1;" parent="1" vertex="1">
          <mxGeometry x="820" y="1428" width="130" height="115" as="geometry" />
        </mxCell>
        <mxCell id="eLDzcsy6LV6fI5223EEZ-87" value="" style="edgeStyle=orthogonalEdgeStyle;rounded=0;jumpStyle=arc;orthogonalLoop=1;jettySize=auto;html=1;" parent="1" source="eLDzcsy6LV6fI5223EEZ-72" target="eLDzcsy6LV6fI5223EEZ-86" edge="1">
          <mxGeometry relative="1" as="geometry" />
        </mxCell>
        <mxCell id="K2frcegeoW0lDcCDsj6_-5" value="True" style="edgeLabel;html=1;align=center;verticalAlign=middle;resizable=0;points=[];" parent="eLDzcsy6LV6fI5223EEZ-87" vertex="1" connectable="0">
          <mxGeometry x="-0.025" relative="1" as="geometry">
            <mxPoint as="offset" />
          </mxGeometry>
        </mxCell>
        <mxCell id="eLDzcsy6LV6fI5223EEZ-89" value="" style="edgeStyle=orthogonalEdgeStyle;rounded=0;jumpStyle=arc;orthogonalLoop=1;jettySize=auto;html=1;" parent="1" source="eLDzcsy6LV6fI5223EEZ-72" target="eLDzcsy6LV6fI5223EEZ-88" edge="1">
          <mxGeometry relative="1" as="geometry" />
        </mxCell>
        <mxCell id="eLDzcsy6LV6fI5223EEZ-90" value="False" style="edgeLabel;html=1;align=center;verticalAlign=middle;resizable=0;points=[];" parent="eLDzcsy6LV6fI5223EEZ-89" vertex="1" connectable="0">
          <mxGeometry x="-0.1644" y="-2" relative="1" as="geometry">
            <mxPoint as="offset" />
          </mxGeometry>
        </mxCell>
        <mxCell id="eLDzcsy6LV6fI5223EEZ-72" value="taxExemption &amp;lt;= 8000" style="rhombus;whiteSpace=wrap;html=1;" parent="1" vertex="1">
          <mxGeometry x="1090" y="1424" width="160" height="125" as="geometry" />
        </mxCell>
        <mxCell id="eLDzcsy6LV6fI5223EEZ-77" value="" style="edgeStyle=orthogonalEdgeStyle;rounded=0;orthogonalLoop=1;jettySize=auto;html=1;" parent="1" source="eLDzcsy6LV6fI5223EEZ-74" target="eLDzcsy6LV6fI5223EEZ-76" edge="1">
          <mxGeometry relative="1" as="geometry" />
        </mxCell>
        <mxCell id="eLDzcsy6LV6fI5223EEZ-80" value="True" style="edgeLabel;html=1;align=center;verticalAlign=middle;resizable=0;points=[];" parent="eLDzcsy6LV6fI5223EEZ-77" vertex="1" connectable="0">
          <mxGeometry x="-0.1114" y="-2" relative="1" as="geometry">
            <mxPoint as="offset" />
          </mxGeometry>
        </mxCell>
        <mxCell id="eLDzcsy6LV6fI5223EEZ-82" value="" style="edgeStyle=orthogonalEdgeStyle;rounded=0;orthogonalLoop=1;jettySize=auto;html=1;" parent="1" source="eLDzcsy6LV6fI5223EEZ-74" target="eLDzcsy6LV6fI5223EEZ-81" edge="1">
          <mxGeometry relative="1" as="geometry" />
        </mxCell>
        <mxCell id="eLDzcsy6LV6fI5223EEZ-83" value="False" style="edgeLabel;html=1;align=center;verticalAlign=middle;resizable=0;points=[];" parent="eLDzcsy6LV6fI5223EEZ-82" vertex="1" connectable="0">
          <mxGeometry x="-0.1322" y="-2" relative="1" as="geometry">
            <mxPoint as="offset" />
          </mxGeometry>
        </mxCell>
        <mxCell id="eLDzcsy6LV6fI5223EEZ-74" value="parentList [j] &amp;gt; 60" style="rhombus;whiteSpace=wrap;html=1;" parent="1" vertex="1">
          <mxGeometry x="820" y="1625" width="130" height="115" as="geometry" />
        </mxCell>
        <mxCell id="eLDzcsy6LV6fI5223EEZ-84" style="edgeStyle=orthogonalEdgeStyle;rounded=0;orthogonalLoop=1;jettySize=auto;html=1;entryX=0.5;entryY=1;entryDx=0;entryDy=0;" parent="1" source="eLDzcsy6LV6fI5223EEZ-76" target="eLDzcsy6LV6fI5223EEZ-81" edge="1">
          <mxGeometry relative="1" as="geometry" />
        </mxCell>
        <mxCell id="eLDzcsy6LV6fI5223EEZ-76" value="taxAmount = taxAmount - 2000&lt;br&gt;taxExemption = taxExemption + 2000" style="whiteSpace=wrap;html=1;" parent="1" vertex="1">
          <mxGeometry x="825" y="1847.5" width="120" height="60" as="geometry" />
        </mxCell>
        <mxCell id="eLDzcsy6LV6fI5223EEZ-85" style="edgeStyle=orthogonalEdgeStyle;rounded=0;orthogonalLoop=1;jettySize=auto;html=1;exitX=0.5;exitY=0;exitDx=0;exitDy=0;entryX=0.5;entryY=0;entryDx=0;entryDy=0;jumpStyle=arc;" parent="1" source="eLDzcsy6LV6fI5223EEZ-81" target="eLDzcsy6LV6fI5223EEZ-70" edge="1">
          <mxGeometry relative="1" as="geometry">
            <Array as="points">
              <mxPoint x="730" y="1652" />
              <mxPoint x="730" y="1408" />
              <mxPoint x="885" y="1408" />
            </Array>
          </mxGeometry>
        </mxCell>
        <mxCell id="eLDzcsy6LV6fI5223EEZ-81" value="j++" style="whiteSpace=wrap;html=1;" parent="1" vertex="1">
          <mxGeometry x="619" y="1652.5" width="120" height="60" as="geometry" />
        </mxCell>
        <mxCell id="eLDzcsy6LV6fI5223EEZ-93" style="edgeStyle=orthogonalEdgeStyle;rounded=0;jumpStyle=arc;orthogonalLoop=1;jettySize=auto;html=1;entryX=0;entryY=0.5;entryDx=0;entryDy=0;exitX=0.5;exitY=0;exitDx=0;exitDy=0;" parent="1" source="eLDzcsy6LV6fI5223EEZ-86" target="eLDzcsy6LV6fI5223EEZ-91" edge="1">
          <mxGeometry relative="1" as="geometry" />
        </mxCell>
        <mxCell id="eLDzcsy6LV6fI5223EEZ-94" value="True" style="edgeLabel;html=1;align=center;verticalAlign=middle;resizable=0;points=[];" parent="eLDzcsy6LV6fI5223EEZ-93" vertex="1" connectable="0">
          <mxGeometry x="-0.6127" relative="1" as="geometry">
            <mxPoint y="1" as="offset" />
          </mxGeometry>
        </mxCell>
        <mxCell id="eLDzcsy6LV6fI5223EEZ-97" value="" style="edgeStyle=orthogonalEdgeStyle;rounded=0;jumpStyle=arc;orthogonalLoop=1;jettySize=auto;html=1;" parent="1" source="eLDzcsy6LV6fI5223EEZ-86" target="eLDzcsy6LV6fI5223EEZ-96" edge="1">
          <mxGeometry relative="1" as="geometry" />
        </mxCell>
        <mxCell id="eLDzcsy6LV6fI5223EEZ-98" value="False" style="edgeLabel;html=1;align=center;verticalAlign=middle;resizable=0;points=[];" parent="eLDzcsy6LV6fI5223EEZ-97" vertex="1" connectable="0">
          <mxGeometry x="-0.393" y="3" relative="1" as="geometry">
            <mxPoint as="offset" />
          </mxGeometry>
        </mxCell>
        <mxCell id="eLDzcsy6LV6fI5223EEZ-86" value="taxAmount &amp;gt;= 0" style="rhombus;whiteSpace=wrap;html=1;" parent="1" vertex="1">
          <mxGeometry x="1090" y="1219" width="160" height="125" as="geometry" />
        </mxCell>
        <mxCell id="eLDzcsy6LV6fI5223EEZ-92" value="" style="edgeStyle=orthogonalEdgeStyle;rounded=0;jumpStyle=arc;orthogonalLoop=1;jettySize=auto;html=1;" parent="1" source="eLDzcsy6LV6fI5223EEZ-88" target="eLDzcsy6LV6fI5223EEZ-91" edge="1">
          <mxGeometry relative="1" as="geometry" />
        </mxCell>
        <mxCell id="eLDzcsy6LV6fI5223EEZ-88" value="taxAmount = taxAmount + (taxExeption - 8000)" style="whiteSpace=wrap;html=1;" parent="1" vertex="1">
          <mxGeometry x="1110" y="1661.5" width="120" height="60" as="geometry" />
        </mxCell>
        <mxCell id="eLDzcsy6LV6fI5223EEZ-102" style="edgeStyle=orthogonalEdgeStyle;rounded=0;jumpStyle=arc;orthogonalLoop=1;jettySize=auto;html=1;entryX=1;entryY=0.5;entryDx=0;entryDy=0;exitX=0.5;exitY=0;exitDx=0;exitDy=0;" parent="1" source="eLDzcsy6LV6fI5223EEZ-91" target="eLDzcsy6LV6fI5223EEZ-99" edge="1">
          <mxGeometry relative="1" as="geometry" />
        </mxCell>
        <mxCell id="eLDzcsy6LV6fI5223EEZ-91" value="return taxAmount" style="whiteSpace=wrap;html=1;" parent="1" vertex="1">
          <mxGeometry x="1300" y="1120" width="120" height="60" as="geometry" />
        </mxCell>
        <mxCell id="eLDzcsy6LV6fI5223EEZ-100" value="" style="edgeStyle=orthogonalEdgeStyle;rounded=0;jumpStyle=arc;orthogonalLoop=1;jettySize=auto;html=1;exitX=0.5;exitY=0;exitDx=0;exitDy=0;entryX=0;entryY=0.5;entryDx=0;entryDy=0;" parent="1" source="eLDzcsy6LV6fI5223EEZ-96" target="eLDzcsy6LV6fI5223EEZ-99" edge="1">
          <mxGeometry relative="1" as="geometry" />
        </mxCell>
        <mxCell id="eLDzcsy6LV6fI5223EEZ-96" value="return 0" style="whiteSpace=wrap;html=1;" parent="1" vertex="1">
          <mxGeometry x="880" y="1120" width="120" height="60" as="geometry" />
        </mxCell>
        <mxCell id="eLDzcsy6LV6fI5223EEZ-99" value="exit" style="ellipse;whiteSpace=wrap;html=1;" parent="1" vertex="1">
          <mxGeometry x="1070" y="880" width="120" height="60" as="geometry" />
        </mxCell>
      </root>
    </mxGraphModel>
  </diagram>
</mxfile>
